<svg xmlns="http://www.w3.org/2000/svg" xmlns:xlink="http://www.w3.org/1999/xlink" viewBox="0 0 960 540" fill="none" stroke="none" stroke-linecap="square" stroke-miterlimit="10" xmlns:v="https://vecta.io/nano"><style><![CDATA[.B{fill-rule:evenodd}.C{fill-opacity:0}.D{stroke:#595959}.E{stroke-linejoin:round}.F{stroke-linecap:butt}]]></style><clipPath id="A"><path d="M0 0h960v540H0V0z"/></clipPath><g clip-path="url(#A)"><g class="B"><path fill="#fff" d="M0 0h960v540H0z"/><path fill="#000" d="M465.769 30.315v490.362" class="C"/></g><g class="D"><path d="M465.769 33.742V517.25" class="E F"/><g fill="#595959" class="B"><path d="M465.769 33.742l1.125 1.125-1.125-3.09-1.125 3.09zm0 483.508l-1.125-1.125 1.125 3.09 1.125-3.09z"/></g></g><path fill="#000" d="M28.572 275.496h884.976" class="B C"/><g class="D"><path d="M31.999 275.496h878.122" class="E F"/><g fill="#595959" class="B"><path d="M31.999 275.496l1.125-1.125-3.09 1.125 3.09 1.125zm878.122 0l-1.125 1.125 3.09-1.125-3.09-1.125z"/></g></g><g fill="#000"><path d="M29.866 241.858h153.953v42.016H29.866z" class="B C"/><path d="M43.491 255.341q1.531 0 2.531.891 1.016.875 1.016 2.375 0 1-.406 1.703-.391.688-1.266 1.438-.75.625-1.047 1.188-.297.547-.297 1.719v.547h-1.344v-1.578q0-.547.328-1.078.344-.531 1.125-1.234.766-.672 1.156-1.266.406-.609.406-1.328 0-.937-.609-1.531-.609-.609-1.578-.609-.906 0-1.547.547-.625.531-.812 1.484l-1.406-.156q.219-1.469 1.25-2.281 1.031-.828 2.5-.828zm-.031 11.531q.422 0 .703.297.297.297.297.719 0 .406-.297.703-.281.297-.703.297-.453 0-.734-.297-.281-.297-.281-.703 0-.422.281-.719.297-.297.734-.297zm9.024-11.531q1.531 0 2.531.891 1.016.875 1.016 2.375 0 1-.406 1.703-.391.688-1.266 1.438-.75.625-1.047 1.188-.297.547-.297 1.719v.547h-1.344v-1.578q0-.547.328-1.078.344-.531 1.125-1.234.766-.672 1.156-1.266.406-.609.406-1.328 0-.937-.609-1.531-.609-.609-1.578-.609-.906 0-1.547.547-.625.531-.812 1.484l-1.406-.156q.219-1.469 1.25-2.281 1.031-.828 2.5-.828zm-.031 11.531q.422 0 .703.297.297.297.297.719 0 .406-.297.703-.281.297-.703.297-.453 0-.734-.297-.281-.297-.281-.703 0-.422.281-.719.297-.297.734-.297zm9.024-11.531q1.531 0 2.531.891 1.016.875 1.016 2.375 0 1-.406 1.703-.391.688-1.266 1.438-.75.625-1.047 1.188-.297.547-.297 1.719v.547h-1.344v-1.578q0-.547.328-1.078.344-.531 1.125-1.234.766-.672 1.156-1.266.406-.609.406-1.328 0-.937-.609-1.531-.609-.609-1.578-.609-.906 0-1.547.547-.625.531-.812 1.484l-1.406-.156q.219-1.469 1.25-2.281 1.031-.828 2.5-.828zm-.031 11.531q.422 0 .703.297.297.297.297.719 0 .406-.297.703-.281.297-.703.297-.453 0-.734-.297-.281-.297-.281-.703 0-.422.281-.719.297-.297.734-.297zm9.024-11.531q1.531 0 2.531.891 1.016.875 1.016 2.375 0 1-.406 1.703-.391.688-1.266 1.438-.75.625-1.047 1.188-.297.547-.297 1.719v.547h-1.344v-1.578q0-.547.328-1.078.344-.531 1.125-1.234.766-.672 1.156-1.266.406-.609.406-1.328 0-.937-.609-1.531-.609-.609-1.578-.609-.906 0-1.547.547-.625.531-.812 1.484l-1.406-.156q.219-1.469 1.25-2.281 1.031-.828 2.5-.828zm-.031 11.531q.422 0 .703.297.297.297.297.719 0 .406-.297.703-.281.297-.703.297-.453 0-.734-.297-.281-.297-.281-.703 0-.422.281-.719.297-.297.734-.297zm9.024-11.531q1.531 0 2.531.891 1.016.875 1.016 2.375 0 1-.406 1.703-.391.688-1.266 1.438-.75.625-1.047 1.188-.297.547-.297 1.719v.547h-1.344v-1.578q0-.547.328-1.078.344-.531 1.125-1.234.766-.672 1.156-1.266.406-.609.406-1.328 0-.937-.609-1.531-.609-.609-1.578-.609-.906 0-1.547.547-.625.531-.812 1.484l-1.406-.156q.219-1.469 1.25-2.281 1.031-.828 2.5-.828zm-.031 11.531q.422 0 .703.297.297.297.297.719 0 .406-.297.703-.281.297-.703.297-.453 0-.734-.297-.281-.297-.281-.703 0-.422.281-.719.297-.297.734-.297zm9.024-11.531q1.531 0 2.531.891 1.016.875 1.016 2.375 0 1-.406 1.703-.391.688-1.266 1.438-.75.625-1.047 1.188-.297.547-.297 1.719v.547H87.64v-1.578q0-.547.328-1.078.344-.531 1.125-1.234.766-.672 1.156-1.266.406-.609.406-1.328 0-.937-.609-1.531-.609-.609-1.578-.609-.906 0-1.547.547-.625.531-.812 1.484l-1.406-.156q.219-1.469 1.25-2.281 1.031-.828 2.5-.828zm-.031 11.531q.422 0 .703.297.297.297.297.719 0 .406-.297.703-.281.297-.703.297-.453 0-.734-.297-.281-.297-.281-.703 0-.422.281-.719.297-.297.734-.297zm9.024-11.531q1.531 0 2.531.891 1.016.875 1.016 2.375 0 1-.406 1.703-.391.688-1.266 1.438-.75.625-1.047 1.188-.297.547-.297 1.719v.547h-1.344v-1.578q0-.547.328-1.078.344-.531 1.125-1.234.766-.672 1.156-1.266.406-.609.406-1.328 0-.937-.609-1.531-.609-.609-1.578-.609-.906 0-1.547.547-.625.531-.812 1.484l-1.406-.156q.219-1.469 1.25-2.281 1.031-.828 2.5-.828zm-.031 11.531q.422 0 .703.297.297.297.297.719 0 .406-.297.703-.281.297-.703.297-.453 0-.734-.297-.281-.297-.281-.703 0-.422.281-.719.297-.297.734-.297z"/><path d="M820.102 241.858h153.953v42.016H820.102z" class="B C"/><path d="M833.727 255.341q1.531 0 2.531.891 1.016.875 1.016 2.375 0 1-.406 1.703-.391.688-1.266 1.438-.75.625-1.047 1.188-.297.547-.297 1.719v.547h-1.344v-1.578q0-.547.328-1.078.344-.531 1.125-1.234.766-.672 1.156-1.266.406-.609.406-1.328 0-.937-.609-1.531-.609-.609-1.578-.609-.906 0-1.547.547-.625.531-.812 1.484l-1.406-.156q.219-1.469 1.25-2.281 1.031-.828 2.5-.828zm-.031 11.531q.422 0 .703.297.297.297.297.719 0 .406-.297.703-.281.297-.703.297-.453 0-.734-.297-.281-.297-.281-.703 0-.422.281-.719.297-.297.734-.297zm9.024-11.531q1.531 0 2.531.891 1.016.875 1.016 2.375 0 1-.406 1.703-.391.688-1.266 1.438-.75.625-1.047 1.188-.297.547-.297 1.719v.547h-1.344v-1.578q0-.547.328-1.078.344-.531 1.125-1.234.766-.672 1.156-1.266.406-.609.406-1.328 0-.937-.609-1.531-.609-.609-1.578-.609-.906 0-1.547.547-.625.531-.812 1.484l-1.406-.156q.219-1.469 1.25-2.281 1.031-.828 2.5-.828zm-.031 11.531q.422 0 .703.297.297.297.297.719 0 .406-.297.703-.281.297-.703.297-.453 0-.734-.297-.281-.297-.281-.703 0-.422.281-.719.297-.297.734-.297zm13.242-11.297v1.219l-5.312 11.984h-1.516l5.422-11.984h-6.437v-1.219h7.844zm6.154-.234q1.531 0 2.531.891 1.016.875 1.016 2.375 0 1-.406 1.703-.391.688-1.266 1.438-.75.625-1.047 1.188-.297.547-.297 1.719v.547h-1.344v-1.578q0-.547.328-1.078.344-.531 1.125-1.234.766-.672 1.156-1.266.406-.609.406-1.328 0-.937-.609-1.531-.609-.609-1.578-.609-.906 0-1.547.547-.625.531-.812 1.484l-1.406-.156q.219-1.469 1.25-2.281 1.031-.828 2.5-.828zm-.031 11.531q.422 0 .703.297.297.297.297.719 0 .406-.297.703-.281.297-.703.297-.453 0-.734-.297-.281-.297-.281-.703 0-.422.281-.719.297-.297.734-.297zm9.024-11.531q1.531 0 2.531.891 1.016.875 1.016 2.375 0 1-.406 1.703-.391.688-1.266 1.438-.75.625-1.047 1.188-.297.547-.297 1.719v.547h-1.344v-1.578q0-.547.328-1.078.344-.531 1.125-1.234.766-.672 1.156-1.266.406-.609.406-1.328 0-.937-.609-1.531-.609-.609-1.578-.609-.906 0-1.547.547-.625.531-.812 1.484l-1.406-.156q.219-1.469 1.25-2.281 1.031-.828 2.5-.828zm-.031 11.531q.422 0 .703.297.297.297.297.719 0 .406-.297.703-.281.297-.703.297-.453 0-.734-.297-.281-.297-.281-.703 0-.422.281-.719.297-.297.734-.297zm9.024-11.531q1.531 0 2.531.891 1.016.875 1.016 2.375 0 1-.406 1.703-.391.688-1.266 1.438-.75.625-1.047 1.188-.297.547-.297 1.719v.547h-1.344v-1.578q0-.547.328-1.078.344-.531 1.125-1.234.766-.672 1.156-1.266.406-.609.406-1.328 0-.937-.609-1.531-.609-.609-1.578-.609-.906 0-1.547.547-.625.531-.812 1.484l-1.406-.156q.219-1.469 1.25-2.281 1.031-.828 2.5-.828zm-.031 11.531q.422 0 .703.297.297.297.297.719 0 .406-.297.703-.281.297-.703.297-.453 0-.734-.297-.281-.297-.281-.703 0-.422.281-.719.297-.297.734-.297zm9.024-11.531q1.531 0 2.531.891 1.016.875 1.016 2.375 0 1-.406 1.703-.391.688-1.266 1.438-.75.625-1.047 1.188-.297.547-.297 1.719v.547h-1.344v-1.578q0-.547.328-1.078.344-.531 1.125-1.234.766-.672 1.156-1.266.406-.609.406-1.328 0-.937-.609-1.531-.609-.609-1.578-.609-.906 0-1.547.547-.625.531-.812 1.484l-1.406-.156q.219-1.469 1.25-2.281 1.031-.828 2.5-.828zm-.031 11.531q.422 0 .703.297.297.297.297.719 0 .406-.297.703-.281.297-.703.297-.453 0-.734-.297-.281-.297-.281-.703 0-.422.281-.719.297-.297.734-.297zm9.024-11.531q1.531 0 2.531.891 1.016.875 1.016 2.375 0 1-.406 1.703-.391.688-1.266 1.438-.75.625-1.047 1.188-.297.547-.297 1.719v.547h-1.344v-1.578q0-.547.328-1.078.344-.531 1.125-1.234.766-.672 1.156-1.266.406-.609.406-1.328 0-.937-.609-1.531-.609-.609-1.578-.609-.906 0-1.547.547-.625.531-.812 1.484l-1.406-.156q.219-1.469 1.25-2.281 1.031-.828 2.5-.828zm-.031 11.531q.422 0 .703.297.297.297.297.719 0 .406-.297.703-.281.297-.703.297-.453 0-.734-.297-.281-.297-.281-.703 0-.422.281-.719.297-.297.734-.297z"/><path d="M465.769 19.323h153.953v42.016H465.769z" class="B C"/><path d="M479.394 32.805q1.531 0 2.531.891 1.016.875 1.016 2.375 0 1-.406 1.703-.391.688-1.266 1.438-.75.625-1.047 1.188-.297.547-.297 1.719v.547h-1.344v-1.578q0-.547.328-1.078.344-.531 1.125-1.234.766-.672 1.156-1.266.406-.609.406-1.328 0-.937-.609-1.531-.609-.609-1.578-.609-.906 0-1.547.547-.625.531-.812 1.484l-1.406-.156q.219-1.469 1.25-2.281 1.031-.828 2.5-.828zm-.031 11.531q.422 0 .703.297.297.297.297.719 0 .406-.297.703-.281.297-.703.297-.453 0-.734-.297-.281-.297-.281-.703 0-.422.281-.719.297-.297.734-.297zm9.024-11.531q1.531 0 2.531.891 1.016.875 1.016 2.375 0 1-.406 1.703-.391.688-1.266 1.438-.75.625-1.047 1.188-.297.547-.297 1.719v.547h-1.344v-1.578q0-.547.328-1.078.344-.531 1.125-1.234.766-.672 1.156-1.266.406-.609.406-1.328 0-.937-.609-1.531-.609-.609-1.578-.609-.906 0-1.547.547-.625.531-.812 1.484l-1.406-.156q.219-1.469 1.25-2.281 1.031-.828 2.5-.828zm-.031 11.531q.422 0 .703.297.297.297.297.719 0 .406-.297.703-.281.297-.703.297-.453 0-.734-.297-.281-.297-.281-.703 0-.422.281-.719.297-.297.734-.297zm9.024-11.531q1.531 0 2.531.891 1.016.875 1.016 2.375 0 1-.406 1.703-.391.688-1.266 1.438-.75.625-1.047 1.188-.297.547-.297 1.719v.547h-1.344v-1.578q0-.547.328-1.078.344-.531 1.125-1.234.766-.672 1.156-1.266.406-.609.406-1.328 0-.937-.609-1.531-.609-.609-1.578-.609-.906 0-1.547.547-.625.531-.812 1.484l-1.406-.156q.219-1.469 1.25-2.281 1.031-.828 2.5-.828zm-.031 11.531q.422 0 .703.297.297.297.297.719 0 .406-.297.703-.281.297-.703.297-.453 0-.734-.297-.281-.297-.281-.703 0-.422.281-.719.297-.297.734-.297zm9.024-11.531q1.531 0 2.531.891 1.016.875 1.016 2.375 0 1-.406 1.703-.391.688-1.266 1.438-.75.625-1.047 1.188-.297.547-.297 1.719v.547h-1.344v-1.578q0-.547.328-1.078.344-.531 1.125-1.234.766-.672 1.156-1.266.406-.609.406-1.328 0-.937-.609-1.531-.609-.609-1.578-.609-.906 0-1.547.547-.625.531-.812 1.484l-1.406-.156q.219-1.469 1.25-2.281 1.031-.828 2.5-.828zm-.031 11.531q.422 0 .703.297.297.297.297.719 0 .406-.297.703-.281.297-.703.297-.453 0-.734-.297-.281-.297-.281-.703 0-.422.281-.719.297-.297.734-.297zm9.024-11.531q1.531 0 2.531.891 1.016.875 1.016 2.375 0 1-.406 1.703-.391.688-1.266 1.438-.75.625-1.047 1.188-.297.547-.297 1.719v.547h-1.344v-1.578q0-.547.328-1.078.344-.531 1.125-1.234.766-.672 1.156-1.266.406-.609.406-1.328 0-.937-.609-1.531-.609-.609-1.578-.609-.906 0-1.547.547-.625.531-.812 1.484l-1.406-.156q.219-1.469 1.25-2.281 1.031-.828 2.5-.828zm-.031 11.531q.422 0 .703.297.297.297.297.719 0 .406-.297.703-.281.297-.703.297-.453 0-.734-.297-.281-.297-.281-.703 0-.422.281-.719.297-.297.734-.297zm12.164-11.297v8.844h1.891v1.219h-1.891v3.141h-1.344v-3.141h-5.719v-1.531l5.344-8.531h1.719zm-1.391 1.344l-4.547 7.5h4.594v-7.5h-.047zm8.623-1.578q1.531 0 2.531.891 1.016.875 1.016 2.375 0 1-.406 1.703-.391.688-1.266 1.438-.75.625-1.047 1.188-.297.547-.297 1.719v.547h-1.344v-1.578q0-.547.328-1.078.344-.531 1.125-1.234.766-.672 1.156-1.266.406-.609.406-1.328 0-.937-.609-1.531-.609-.609-1.578-.609-.906 0-1.547.547-.625.531-.812 1.484l-1.406-.156q.219-1.469 1.25-2.281 1.031-.828 2.5-.828zm-.031 11.531q.422 0 .703.297.297.297.297.719 0 .406-.297.703-.281.297-.703.297-.453 0-.734-.297-.281-.297-.281-.703 0-.422.281-.719.297-.297.734-.297z"/><path d="M465.769 489.654h153.953v42.016H465.769z" class="B C"/><path d="M481.957 503.37l-3.609 5.672.047.031q.672-.453 1.828-.453 1.734 0 2.859 1.172 1.125 1.172 1.172 2.922 0 1.828-1.234 2.953-1.219 1.109-3.062 1.125-1.859 0-3.062-1.141-1.203-1.156-1.234-2.953 0-1.047.328-1.937.344-.906 1.391-2.547l2.984-4.844h1.594zm-4.953 9.344q0 1.234.813 2.031.828.797 2.141.828 1.281 0 2.109-.797.844-.812.844-2.062 0-1.234-.812-2.047-.797-.812-2.156-.812-1.25 0-2.094.781-.828.781-.844 2.078zm12.763-9.578q1.531 0 2.531.891 1.016.875 1.016 2.375 0 1-.406 1.703-.391.688-1.266 1.438-.75.625-1.047 1.188-.297.547-.297 1.719v.547h-1.344v-1.578q0-.547.328-1.078.344-.531 1.125-1.234.766-.672 1.156-1.266.406-.609.406-1.328 0-.937-.609-1.531-.609-.609-1.578-.609-.906 0-1.547.547-.625.531-.812 1.484l-1.406-.156q.219-1.469 1.25-2.281 1.031-.828 2.5-.828zm-.031 11.531q.422 0 .703.297.297.297.297.719 0 .406-.297.703-.281.297-.703.297-.453 0-.734-.297-.281-.297-.281-.703 0-.422.281-.719.297-.297.734-.297zm9.024-11.531q1.531 0 2.531.891 1.016.875 1.016 2.375 0 1-.406 1.703-.391.688-1.266 1.438-.75.625-1.047 1.188-.297.547-.297 1.719v.547h-1.344v-1.578q0-.547.328-1.078.344-.531 1.125-1.234.766-.672 1.156-1.266.406-.609.406-1.328 0-.937-.609-1.531-.609-.609-1.578-.609-.906 0-1.547.547-.625.531-.812 1.484l-1.406-.156q.219-1.469 1.25-2.281 1.031-.828 2.5-.828zm-.031 11.531q.422 0 .703.297.297.297.297.719 0 .406-.297.703-.281.297-.703.297-.453 0-.734-.297-.281-.297-.281-.703 0-.422.281-.719.297-.297.734-.297zm9.024-11.531q1.531 0 2.531.891 1.016.875 1.016 2.375 0 1-.406 1.703-.391.688-1.266 1.438-.75.625-1.047 1.188-.297.547-.297 1.719v.547h-1.344v-1.578q0-.547.328-1.078.344-.531 1.125-1.234.766-.672 1.156-1.266.406-.609.406-1.328 0-.937-.609-1.531-.609-.609-1.578-.609-.906 0-1.547.547-.625.531-.812 1.484l-1.406-.156q.219-1.469 1.25-2.281 1.031-.828 2.5-.828zm-.031 11.531q.422 0 .703.297.297.297.297.719 0 .406-.297.703-.281.297-.703.297-.453 0-.734-.297-.281-.297-.281-.703 0-.422.281-.719.297-.297.734-.297zm9.024-11.531q1.531 0 2.531.891 1.016.875 1.016 2.375 0 1-.406 1.703-.391.688-1.266 1.438-.75.625-1.047 1.188-.297.547-.297 1.719v.547h-1.344v-1.578q0-.547.328-1.078.344-.531 1.125-1.234.766-.672 1.156-1.266.406-.609.406-1.328 0-.937-.609-1.531-.609-.609-1.578-.609-.906 0-1.547.547-.625.531-.812 1.484l-1.406-.156q.219-1.469 1.25-2.281 1.031-.828 2.5-.828zm-.031 11.531q.422 0 .703.297.297.297.297.719 0 .406-.297.703-.281.297-.703.297-.453 0-.734-.297-.281-.297-.281-.703 0-.422.281-.719.297-.297.734-.297z"/><path d="M81.186 426.173h226.425v42.016H81.186z" class="B C"/><path d="M94.811 439.656q1.531 0 2.531.891 1.016.875 1.016 2.375 0 1-.406 1.703-.391.688-1.266 1.438-.75.625-1.047 1.188-.297.547-.297 1.719v.547h-1.344v-1.578q0-.547.328-1.078.344-.531 1.125-1.234.766-.672 1.156-1.266.406-.609.406-1.328 0-.937-.609-1.531-.609-.609-1.578-.609-.906 0-1.547.547-.625.531-.812 1.484l-1.406-.156q.219-1.469 1.25-2.281 1.031-.828 2.5-.828zm-.031 11.531q.422 0 .703.297.297.297.297.719 0 .406-.297.703-.281.297-.703.297-.453 0-.734-.297-.281-.297-.281-.703 0-.422.281-.719.297-.297.734-.297zm10.899-11.297v13.203h-1.344v-11.531l-2.391 2.094-.828-1.016 3.359-2.75h1.203zm8.498-.234q1.531 0 2.531.891 1.016.875 1.016 2.375 0 1-.406 1.703-.391.688-1.266 1.438-.75.625-1.047 1.188-.297.547-.297 1.719v.547h-1.344v-1.578q0-.547.328-1.078.344-.531 1.125-1.234.766-.672 1.156-1.266.406-.609.406-1.328 0-.937-.609-1.531-.609-.609-1.578-.609-.906 0-1.547.547-.625.531-.812 1.484l-1.406-.156q.219-1.469 1.25-2.281 1.031-.828 2.5-.828zm-.031 11.531q.422 0 .703.297.297.297.297.719 0 .406-.297.703-.281.297-.703.297-.453 0-.734-.297-.281-.297-.281-.703 0-.422.281-.719.297-.297.734-.297zm9.024-11.531q1.531 0 2.531.891 1.016.875 1.016 2.375 0 1-.406 1.703-.391.688-1.266 1.438-.75.625-1.047 1.188-.297.547-.297 1.719v.547h-1.344v-1.578q0-.547.328-1.078.344-.531 1.125-1.234.766-.672 1.156-1.266.406-.609.406-1.328 0-.937-.609-1.531-.609-.609-1.578-.609-.906 0-1.547.547-.625.531-.812 1.484l-1.406-.156q.219-1.469 1.25-2.281 1.031-.828 2.5-.828zm-.031 11.531q.422 0 .703.297.297.297.297.719 0 .406-.297.703-.281.297-.703.297-.453 0-.734-.297-.281-.297-.281-.703 0-.422.281-.719.297-.297.734-.297zm14.21-11.531q1.531 0 2.531.891 1.016.875 1.016 2.375 0 1-.406 1.703-.391.688-1.266 1.438-.75.625-1.047 1.188-.297.547-.297 1.719v.547h-1.344v-1.578q0-.547.328-1.078.344-.531 1.125-1.234.766-.672 1.156-1.266.406-.609.406-1.328 0-.937-.609-1.531-.609-.609-1.578-.609-.906 0-1.547.547-.625.531-.812 1.484l-1.406-.156q.219-1.469 1.25-2.281 1.031-.828 2.5-.828zm-.031 11.531q.422 0 .703.297.297.297.297.719 0 .406-.297.703-.281.297-.703.297-.453 0-.734-.297-.281-.297-.281-.703 0-.422.281-.719.297-.297.734-.297zm9.024-11.531q1.531 0 2.531.891 1.016.875 1.016 2.375 0 1-.406 1.703-.391.688-1.266 1.438-.75.625-1.047 1.188-.297.547-.297 1.719v.547h-1.344v-1.578q0-.547.328-1.078.344-.531 1.125-1.234.766-.672 1.156-1.266.406-.609.406-1.328 0-.937-.609-1.531-.609-.609-1.578-.609-.906 0-1.547.547-.625.531-.812 1.484l-1.406-.156q.219-1.469 1.25-2.281 1.031-.828 2.5-.828zm-.031 11.531q.422 0 .703.297.297.297.297.719 0 .406-.297.703-.281.297-.703.297-.453 0-.734-.297-.281-.297-.281-.703 0-.422.281-.719.297-.297.734-.297zm9.024-11.531q1.531 0 2.531.891 1.016.875 1.016 2.375 0 1-.406 1.703-.391.688-1.266 1.438-.75.625-1.047 1.188-.297.547-.297 1.719v.547h-1.344v-1.578q0-.547.328-1.078.344-.531 1.125-1.234.766-.672 1.156-1.266.406-.609.406-1.328 0-.937-.609-1.531-.609-.609-1.578-.609-.906 0-1.547.547-.625.531-.812 1.484l-1.406-.156q.219-1.469 1.25-2.281 1.031-.828 2.5-.828zm-.031 11.531q.422 0 .703.297.297.297.297.719 0 .406-.297.703-.281.297-.703.297-.453 0-.734-.297-.281-.297-.281-.703 0-.422.281-.719.297-.297.734-.297zm9.024-11.531q1.531 0 2.531.891 1.016.875 1.016 2.375 0 1-.406 1.703-.391.688-1.266 1.438-.75.625-1.047 1.188-.297.547-.297 1.719v.547h-1.344v-1.578q0-.547.328-1.078.344-.531 1.125-1.234.766-.672 1.156-1.266.406-.609.406-1.328 0-.937-.609-1.531-.609-.609-1.578-.609-.906 0-1.547.547-.625.531-.812 1.484l-1.406-.156q.219-1.469 1.25-2.281 1.031-.828 2.5-.828zm-.031 11.531q.422 0 .703.297.297.297.297.719 0 .406-.297.703-.281.297-.703.297-.453 0-.734-.297-.281-.297-.281-.703 0-.422.281-.719.297-.297.734-.297zm9.024-11.531q1.531 0 2.531.891 1.016.875 1.016 2.375 0 1-.406 1.703-.391.688-1.266 1.438-.75.625-1.047 1.188-.297.547-.297 1.719v.547h-1.344v-1.578q0-.547.328-1.078.344-.531 1.125-1.234.766-.672 1.156-1.266.406-.609.406-1.328 0-.937-.609-1.531-.609-.609-1.578-.609-.906 0-1.547.547-.625.531-.812 1.484l-1.406-.156q.219-1.469 1.25-2.281 1.031-.828 2.5-.828zm-.031 11.531q.422 0 .703.297.297.297.297.719 0 .406-.297.703-.281.297-.703.297-.453 0-.734-.297-.281-.297-.281-.703 0-.422.281-.719.297-.297.734-.297zm9.024-11.531q1.531 0 2.531.891 1.016.875 1.016 2.375 0 1-.406 1.703-.391.688-1.266 1.438-.75.625-1.047 1.188-.297.547-.297 1.719v.547h-1.344v-1.578q0-.547.328-1.078.344-.531 1.125-1.234.766-.672 1.156-1.266.406-.609.406-1.328 0-.937-.609-1.531-.609-.609-1.578-.609-.906 0-1.547.547-.625.531-.812 1.484l-1.406-.156q.219-1.469 1.25-2.281 1.031-.828 2.5-.828zm-.031 11.531q.422 0 .703.297.297.297.297.719 0 .406-.297.703-.281.297-.703.297-.453 0-.734-.297-.281-.297-.281-.703 0-.422.281-.719.297-.297.734-.297zm9.024-11.531q1.531 0 2.531.891 1.016.875 1.016 2.375 0 1-.406 1.703-.391.688-1.266 1.438-.75.625-1.047 1.188-.297.547-.297 1.719v.547h-1.344v-1.578q0-.547.328-1.078.344-.531 1.125-1.234.766-.672 1.156-1.266.406-.609.406-1.328 0-.937-.609-1.531-.609-.609-1.578-.609-.906 0-1.547.547-.625.531-.812 1.484l-1.406-.156q.219-1.469 1.25-2.281 1.031-.828 2.5-.828zm-.031 11.531q.422 0 .703.297.297.297.297.719 0 .406-.297.703-.281.297-.703.297-.453 0-.734-.297-.281-.297-.281-.703 0-.422.281-.719.297-.297.734-.297z"/><path d="M81.186 41.318h238.047v42.016H81.186z" class="B C"/><path d="M95.374 54.8q1.844 0 2.906.953 1.078.953 1.078 2.594 0 .984-.5 1.938-.5.938-2 2.438l-4.328 4.281h6.953v1.234h-8.406v-1.547q3.469-3.531 5.25-5.328 1.781-1.812 1.688-3.016 0-1.016-.719-1.656-.703-.656-1.828-.656-.969 0-1.687.563-.703.547-.937 1.516l-1.422-.156q.266-1.453 1.359-2.297 1.094-.859 2.594-.859zm9.81 0q1.531 0 2.531.891 1.016.875 1.016 2.375 0 1-.406 1.703-.391.688-1.266 1.438-.75.625-1.047 1.188-.297.547-.297 1.719v.547h-1.344v-1.578q0-.547.328-1.078.344-.531 1.125-1.234.766-.672 1.156-1.266.406-.609.406-1.328 0-.937-.609-1.531-.609-.609-1.578-.609-.906 0-1.547.547-.625.531-.812 1.484l-1.406-.156q.219-1.469 1.25-2.281 1.031-.828 2.5-.828zm-.031 11.531q.422 0 .703.297.297.297.297.719 0 .406-.297.703-.281.297-.703.297-.453 0-.734-.297-.281-.297-.281-.703 0-.422.281-.719.297-.297.734-.297zm9.024-11.531q1.531 0 2.531.891 1.016.875 1.016 2.375 0 1-.406 1.703-.391.688-1.266 1.438-.75.625-1.047 1.188-.297.547-.297 1.719v.547h-1.344v-1.578q0-.547.328-1.078.344-.531 1.125-1.234.766-.672 1.156-1.266.406-.609.406-1.328 0-.937-.609-1.531-.609-.609-1.578-.609-.906 0-1.547.547-.625.531-.812 1.484l-1.406-.156q.219-1.469 1.25-2.281 1.031-.828 2.5-.828zm-.031 11.531q.422 0 .703.297.297.297.297.719 0 .406-.297.703-.281.297-.703.297-.453 0-.734-.297-.281-.297-.281-.703 0-.422.281-.719.297-.297.734-.297zm9.024-11.531q1.531 0 2.531.891 1.016.875 1.016 2.375 0 1-.406 1.703-.391.688-1.266 1.438-.75.625-1.047 1.188-.297.547-.297 1.719v.547h-1.344v-1.578q0-.547.328-1.078.344-.531 1.125-1.234.766-.672 1.156-1.266.406-.609.406-1.328 0-.937-.609-1.531-.609-.609-1.578-.609-.906 0-1.547.547-.625.531-.812 1.484l-1.406-.156q.219-1.469 1.25-2.281 1.031-.828 2.5-.828zm-.031 11.531q.422 0 .703.297.297.297.297.719 0 .406-.297.703-.281.297-.703.297-.453 0-.734-.297-.281-.297-.281-.703 0-.422.281-.719.297-.297.734-.297zm9.024-11.531q1.531 0 2.531.891 1.016.875 1.016 2.375 0 1-.406 1.703-.391.688-1.266 1.438-.75.625-1.047 1.188-.297.547-.297 1.719v.547h-1.344v-1.578q0-.547.328-1.078.344-.531 1.125-1.234.766-.672 1.156-1.266.406-.609.406-1.328 0-.937-.609-1.531-.609-.609-1.578-.609-.906 0-1.547.547-.625.531-.812 1.484l-1.406-.156q.219-1.469 1.25-2.281 1.031-.828 2.5-.828zm-.031 11.531q.422 0 .703.297.297.297.297.719 0 .406-.297.703-.281.297-.703.297-.453 0-.734-.297-.281-.297-.281-.703 0-.422.281-.719.297-.297.734-.297zm9.024-11.531q1.531 0 2.531.891 1.016.875 1.016 2.375 0 1-.406 1.703-.391.688-1.266 1.438-.75.625-1.047 1.188-.297.547-.297 1.719v.547h-1.344v-1.578q0-.547.328-1.078.344-.531 1.125-1.234.766-.672 1.156-1.266.406-.609.406-1.328 0-.937-.609-1.531-.609-.609-1.578-.609-.906 0-1.547.547-.625.531-.812 1.484l-1.406-.156q.219-1.469 1.25-2.281 1.031-.828 2.5-.828zm-.031 11.531q.422 0 .703.297.297.297.297.719 0 .406-.297.703-.281.297-.703.297-.453 0-.734-.297-.281-.297-.281-.703 0-.422.281-.719.297-.297.734-.297zm9.024-11.531q1.531 0 2.531.891 1.016.875 1.016 2.375 0 1-.406 1.703-.391.688-1.266 1.438-.75.625-1.047 1.188-.297.547-.297 1.719v.547h-1.344v-1.578q0-.547.328-1.078.344-.531 1.125-1.234.766-.672 1.156-1.266.406-.609.406-1.328 0-.937-.609-1.531-.609-.609-1.578-.609-.906 0-1.547.547-.625.531-.812 1.484l-1.406-.156q.219-1.469 1.25-2.281 1.031-.828 2.5-.828zm-.031 11.531q.422 0 .703.297.297.297.297.719 0 .406-.297.703-.281.297-.703.297-.453 0-.734-.297-.281-.297-.281-.703 0-.422.281-.719.297-.297.734-.297zm14.21-11.531q1.531 0 2.531.891 1.016.875 1.016 2.375 0 1-.406 1.703-.391.688-1.266 1.438-.75.625-1.047 1.188-.297.547-.297 1.719v.547h-1.344v-1.578q0-.547.328-1.078.344-.531 1.125-1.234.766-.672 1.156-1.266.406-.609.406-1.328 0-.937-.609-1.531-.609-.609-1.578-.609-.906 0-1.547.547-.625.531-.812 1.484l-1.406-.156q.219-1.469 1.25-2.281 1.031-.828 2.5-.828zm-.031 11.531q.422 0 .703.297.297.297.297.719 0 .406-.297.703-.281.297-.703.297-.453 0-.734-.297-.281-.297-.281-.703 0-.422.281-.719.297-.297.734-.297zm9.024-11.531q1.531 0 2.531.891 1.016.875 1.016 2.375 0 1-.406 1.703-.391.688-1.266 1.438-.75.625-1.047 1.188-.297.547-.297 1.719v.547h-1.344v-1.578q0-.547.328-1.078.344-.531 1.125-1.234.766-.672 1.156-1.266.406-.609.406-1.328 0-.937-.609-1.531-.609-.609-1.578-.609-.906 0-1.547.547-.625.531-.812 1.484l-1.406-.156q.219-1.469 1.25-2.281 1.031-.828 2.5-.828zm-.031 11.531q.422 0 .703.297.297.297.297.719 0 .406-.297.703-.281.297-.703.297-.453 0-.734-.297-.281-.297-.281-.703 0-.422.281-.719.297-.297.734-.297zm9.024-11.531q1.531 0 2.531.891 1.016.875 1.016 2.375 0 1-.406 1.703-.391.688-1.266 1.438-.75.625-1.047 1.188-.297.547-.297 1.719v.547h-1.344v-1.578q0-.547.328-1.078.344-.531 1.125-1.234.766-.672 1.156-1.266.406-.609.406-1.328 0-.937-.609-1.531-.609-.609-1.578-.609-.906 0-1.547.547-.625.531-.812 1.484l-1.406-.156q.219-1.469 1.25-2.281 1.031-.828 2.5-.828zm-.031 11.531q.422 0 .703.297.297.297.297.719 0 .406-.297.703-.281.297-.703.297-.453 0-.734-.297-.281-.297-.281-.703 0-.422.281-.719.297-.297.734-.297zm9.024-11.531q1.531 0 2.531.891 1.016.875 1.016 2.375 0 1-.406 1.703-.391.688-1.266 1.438-.75.625-1.047 1.188-.297.547-.297 1.719v.547h-1.344v-1.578q0-.547.328-1.078.344-.531 1.125-1.234.766-.672 1.156-1.266.406-.609.406-1.328 0-.937-.609-1.531-.609-.609-1.578-.609-.906 0-1.547.547-.625.531-.812 1.484l-1.406-.156q.219-1.469 1.25-2.281 1.031-.828 2.5-.828zm-.031 11.531q.422 0 .703.297.297.297.297.719 0 .406-.297.703-.281.297-.703.297-.453 0-.734-.297-.281-.297-.281-.703 0-.422.281-.719.297-.297.734-.297zm9.024-11.531q1.531 0 2.531.891 1.016.875 1.016 2.375 0 1-.406 1.703-.391.688-1.266 1.438-.75.625-1.047 1.188-.297.547-.297 1.719v.547h-1.344v-1.578q0-.547.328-1.078.344-.531 1.125-1.234.766-.672 1.156-1.266.406-.609.406-1.328 0-.937-.609-1.531-.609-.609-1.578-.609-.906 0-1.547.547-.625.531-.812 1.484l-1.406-.156q.219-1.469 1.25-2.281 1.031-.828 2.5-.828zm-.031 11.531q.422 0 .703.297.297.297.297.719 0 .406-.297.703-.281.297-.703.297-.453 0-.734-.297-.281-.297-.281-.703 0-.422.281-.719.297-.297.734-.297z"/><path d="M681.864 415.228h238.047v42.016H681.864z" class="B C"/><path d="M695.489 428.711q1.531 0 2.531.891 1.016.875 1.016 2.375 0 1-.406 1.703-.391.688-1.266 1.438-.75.625-1.047 1.188-.297.547-.297 1.719v.547h-1.344v-1.578q0-.547.328-1.078.344-.531 1.125-1.234.766-.672 1.156-1.266.406-.609.406-1.328 0-.937-.609-1.531-.609-.609-1.578-.609-.906 0-1.547.547-.625.531-.812 1.484l-1.406-.156q.219-1.469 1.25-2.281 1.031-.828 2.5-.828zm-.031 11.531q.422 0 .703.297.297.297.297.719 0 .406-.297.703-.281.297-.703.297-.453 0-.734-.297-.281-.297-.281-.703 0-.422.281-.719.297-.297.734-.297zm9.024-11.531q1.531 0 2.531.891 1.016.875 1.016 2.375 0 1-.406 1.703-.391.688-1.266 1.438-.75.625-1.047 1.188-.297.547-.297 1.719v.547h-1.344v-1.578q0-.547.328-1.078.344-.531 1.125-1.234.766-.672 1.156-1.266.406-.609.406-1.328 0-.937-.609-1.531-.609-.609-1.578-.609-.906 0-1.547.547-.625.531-.812 1.484l-1.406-.156q.219-1.469 1.25-2.281 1.031-.828 2.5-.828zm-.031 11.531q.422 0 .703.297.297.297.297.719 0 .406-.297.703-.281.297-.703.297-.453 0-.734-.297-.281-.297-.281-.703 0-.422.281-.719.297-.297.734-.297zm9.024-11.531q1.531 0 2.531.891 1.016.875 1.016 2.375 0 1-.406 1.703-.391.688-1.266 1.438-.75.625-1.047 1.188-.297.547-.297 1.719v.547h-1.344v-1.578q0-.547.328-1.078.344-.531 1.125-1.234.766-.672 1.156-1.266.406-.609.406-1.328 0-.937-.609-1.531-.609-.609-1.578-.609-.906 0-1.547.547-.625.531-.812 1.484l-1.406-.156q.219-1.469 1.25-2.281 1.031-.828 2.5-.828zm-.031 11.531q.422 0 .703.297.297.297.297.719 0 .406-.297.703-.281.297-.703.297-.453 0-.734-.297-.281-.297-.281-.703 0-.422.281-.719.297-.297.734-.297zm9.024-11.531q1.531 0 2.531.891 1.016.875 1.016 2.375 0 1-.406 1.703-.391.688-1.266 1.438-.75.625-1.047 1.188-.297.547-.297 1.719v.547h-1.344v-1.578q0-.547.328-1.078.344-.531 1.125-1.234.766-.672 1.156-1.266.406-.609.406-1.328 0-.937-.609-1.531-.609-.609-1.578-.609-.906 0-1.547.547-.625.531-.812 1.484l-1.406-.156q.219-1.469 1.25-2.281 1.031-.828 2.5-.828zm-.031 11.531q.422 0 .703.297.297.297.297.719 0 .406-.297.703-.281.297-.703.297-.453 0-.734-.297-.281-.297-.281-.703 0-.422.281-.719.297-.297.734-.297zm9.024-11.531q1.531 0 2.531.891 1.016.875 1.016 2.375 0 1-.406 1.703-.391.688-1.266 1.438-.75.625-1.047 1.188-.297.547-.297 1.719v.547h-1.344v-1.578q0-.547.328-1.078.344-.531 1.125-1.234.766-.672 1.156-1.266.406-.609.406-1.328 0-.937-.609-1.531-.609-.609-1.578-.609-.906 0-1.547.547-.625.531-.812 1.484l-1.406-.156q.219-1.469 1.25-2.281 1.031-.828 2.5-.828zm-.031 11.531q.422 0 .703.297.297.297.297.719 0 .406-.297.703-.281.297-.703.297-.453 0-.734-.297-.281-.297-.281-.703 0-.422.281-.719.297-.297.734-.297zm9.024-11.531q1.531 0 2.531.891 1.016.875 1.016 2.375 0 1-.406 1.703-.391.688-1.266 1.438-.75.625-1.047 1.188-.297.547-.297 1.719v.547h-1.344v-1.578q0-.547.328-1.078.344-.531 1.125-1.234.766-.672 1.156-1.266.406-.609.406-1.328 0-.937-.609-1.531-.609-.609-1.578-.609-.906 0-1.547.547-.625.531-.812 1.484l-1.406-.156q.219-1.469 1.25-2.281 1.031-.828 2.5-.828zm-.031 11.531q.422 0 .703.297.297.297.297.719 0 .406-.297.703-.281.297-.703.297-.453 0-.734-.297-.281-.297-.281-.703 0-.422.281-.719.297-.297.734-.297zm14.21-11.531q1.531 0 2.531.891 1.016.875 1.016 2.375 0 1-.406 1.703-.391.688-1.266 1.438-.75.625-1.047 1.188-.297.547-.297 1.719v.547h-1.344v-1.578q0-.547.328-1.078.344-.531 1.125-1.234.766-.672 1.156-1.266.406-.609.406-1.328 0-.937-.609-1.531-.609-.609-1.578-.609-.906 0-1.547.547-.625.531-.812 1.484l-1.406-.156q.219-1.469 1.25-2.281 1.031-.828 2.5-.828zm-.031 11.531q.422 0 .703.297.297.297.297.719 0 .406-.297.703-.281.297-.703.297-.453 0-.734-.297-.281-.297-.281-.703 0-.422.281-.719.297-.297.734-.297zm9.024-11.531q1.531 0 2.531.891 1.016.875 1.016 2.375 0 1-.406 1.703-.391.688-1.266 1.438-.75.625-1.047 1.188-.297.547-.297 1.719v.547h-1.344v-1.578q0-.547.328-1.078.344-.531 1.125-1.234.766-.672 1.156-1.266.406-.609.406-1.328 0-.937-.609-1.531-.609-.609-1.578-.609-.906 0-1.547.547-.625.531-.812 1.484l-1.406-.156q.219-1.469 1.25-2.281 1.031-.828 2.5-.828zm-.031 11.531q.422 0 .703.297.297.297.297.719 0 .406-.297.703-.281.297-.703.297-.453 0-.734-.297-.281-.297-.281-.703 0-.422.281-.719.297-.297.734-.297zm9.024-11.531q1.531 0 2.531.891 1.016.875 1.016 2.375 0 1-.406 1.703-.391.688-1.266 1.438-.75.625-1.047 1.188-.297.547-.297 1.719v.547h-1.344v-1.578q0-.547.328-1.078.344-.531 1.125-1.234.766-.672 1.156-1.266.406-.609.406-1.328 0-.937-.609-1.531-.609-.609-1.578-.609-.906 0-1.547.547-.625.531-.812 1.484l-1.406-.156q.219-1.469 1.25-2.281 1.031-.828 2.5-.828zm-.031 11.531q.422 0 .703.297.297.297.297.719 0 .406-.297.703-.281.297-.703.297-.453 0-.734-.297-.281-.297-.281-.703 0-.422.281-.719.297-.297.734-.297zm9.024-11.531q1.531 0 2.531.891 1.016.875 1.016 2.375 0 1-.406 1.703-.391.688-1.266 1.438-.75.625-1.047 1.188-.297.547-.297 1.719v.547h-1.344v-1.578q0-.547.328-1.078.344-.531 1.125-1.234.766-.672 1.156-1.266.406-.609.406-1.328 0-.937-.609-1.531-.609-.609-1.578-.609-.906 0-1.547.547-.625.531-.812 1.484l-1.406-.156q.219-1.469 1.25-2.281 1.031-.828 2.5-.828zm-.031 11.531q.422 0 .703.297.297.297.297.719 0 .406-.297.703-.281.297-.703.297-.453 0-.734-.297-.281-.297-.281-.703 0-.422.281-.719.297-.297.734-.297zm9.024-11.531q1.531 0 2.531.891 1.016.875 1.016 2.375 0 1-.406 1.703-.391.688-1.266 1.438-.75.625-1.047 1.188-.297.547-.297 1.719v.547h-1.344v-1.578q0-.547.328-1.078.344-.531 1.125-1.234.766-.672 1.156-1.266.406-.609.406-1.328 0-.937-.609-1.531-.609-.609-1.578-.609-.906 0-1.547.547-.625.531-.812 1.484l-1.406-.156q.219-1.469 1.25-2.281 1.031-.828 2.5-.828zm-.031 11.531q.422 0 .703.297.297.297.297.719 0 .406-.297.703-.281.297-.703.297-.453 0-.734-.297-.281-.297-.281-.703 0-.422.281-.719.297-.297.734-.297zm9.024-11.531q1.531 0 2.531.891 1.016.875 1.016 2.375 0 1-.406 1.703-.391.688-1.266 1.438-.75.625-1.047 1.188-.297.547-.297 1.719v.547h-1.344v-1.578q0-.547.328-1.078.344-.531 1.125-1.234.766-.672 1.156-1.266.406-.609.406-1.328 0-.937-.609-1.531-.609-.609-1.578-.609-.906 0-1.547.547-.625.531-.812 1.484l-1.406-.156q.219-1.469 1.25-2.281 1.031-.828 2.5-.828zm-.031 11.531q.422 0 .703.297.297.297.297.719 0 .406-.297.703-.281.297-.703.297-.453 0-.734-.297-.281-.297-.281-.703 0-.422.281-.719.297-.297.734-.297zm9.024-11.531q1.531 0 2.531.891 1.016.875 1.016 2.375 0 1-.406 1.703-.391.688-1.266 1.438-.75.625-1.047 1.188-.297.547-.297 1.719v.547h-1.344v-1.578q0-.547.328-1.078.344-.531 1.125-1.234.766-.672 1.156-1.266.406-.609.406-1.328 0-.937-.609-1.531-.609-.609-1.578-.609-.906 0-1.547.547-.625.531-.812 1.484l-1.406-.156q.219-1.469 1.25-2.281 1.031-.828 2.5-.828zm-.031 11.531q.422 0 .703.297.297.297.297.719 0 .406-.297.703-.281.297-.703.297-.453 0-.734-.297-.281-.297-.281-.703 0-.422.281-.719.297-.297.734-.297zm9.024-11.531q1.531 0 2.531.891 1.016.875 1.016 2.375 0 1-.406 1.703-.391.688-1.266 1.438-.75.625-1.047 1.188-.297.547-.297 1.719v.547h-1.344v-1.578q0-.547.328-1.078.344-.531 1.125-1.234.766-.672 1.156-1.266.406-.609.406-1.328 0-.937-.609-1.531-.609-.609-1.578-.609-.906 0-1.547.547-.625.531-.812 1.484l-1.406-.156q.219-1.469 1.25-2.281 1.031-.828 2.5-.828zm-.031 11.531q.422 0 .703.297.297.297.297.719 0 .406-.297.703-.281.297-.703.297-.453 0-.734-.297-.281-.297-.281-.703 0-.422.281-.719.297-.297.734-.297z"/><path d="M681.864 41.318h238.047v42.016H681.864z" class="B C"/><path d="M695.489 54.8q1.531 0 2.531.891 1.016.875 1.016 2.375 0 1-.406 1.703-.391.688-1.266 1.438-.75.625-1.047 1.188-.297.547-.297 1.719v.547h-1.344v-1.578q0-.547.328-1.078.344-.531 1.125-1.234.766-.672 1.156-1.266.406-.609.406-1.328 0-.937-.609-1.531-.609-.609-1.578-.609-.906 0-1.547.547-.625.531-.812 1.484l-1.406-.156q.219-1.469 1.25-2.281 1.031-.828 2.5-.828zm-.031 11.531q.422 0 .703.297.297.297.297.719 0 .406-.297.703-.281.297-.703.297-.453 0-.734-.297-.281-.297-.281-.703 0-.422.281-.719.297-.297.734-.297zm9.024-11.531q1.531 0 2.531.891 1.016.875 1.016 2.375 0 1-.406 1.703-.391.688-1.266 1.438-.75.625-1.047 1.188-.297.547-.297 1.719v.547h-1.344v-1.578q0-.547.328-1.078.344-.531 1.125-1.234.766-.672 1.156-1.266.406-.609.406-1.328 0-.937-.609-1.531-.609-.609-1.578-.609-.906 0-1.547.547-.625.531-.812 1.484l-1.406-.156q.219-1.469 1.25-2.281 1.031-.828 2.5-.828zm-.031 11.531q.422 0 .703.297.297.297.297.719 0 .406-.297.703-.281.297-.703.297-.453 0-.734-.297-.281-.297-.281-.703 0-.422.281-.719.297-.297.734-.297zm9.024-11.531q1.531 0 2.531.891 1.016.875 1.016 2.375 0 1-.406 1.703-.391.688-1.266 1.438-.75.625-1.047 1.188-.297.547-.297 1.719v.547h-1.344v-1.578q0-.547.328-1.078.344-.531 1.125-1.234.766-.672 1.156-1.266.406-.609.406-1.328 0-.937-.609-1.531-.609-.609-1.578-.609-.906 0-1.547.547-.625.531-.812 1.484l-1.406-.156q.219-1.469 1.25-2.281 1.031-.828 2.5-.828zm-.031 11.531q.422 0 .703.297.297.297.297.719 0 .406-.297.703-.281.297-.703.297-.453 0-.734-.297-.281-.297-.281-.703 0-.422.281-.719.297-.297.734-.297zm9.024-11.531q1.531 0 2.531.891 1.016.875 1.016 2.375 0 1-.406 1.703-.391.688-1.266 1.438-.75.625-1.047 1.188-.297.547-.297 1.719v.547h-1.344v-1.578q0-.547.328-1.078.344-.531 1.125-1.234.766-.672 1.156-1.266.406-.609.406-1.328 0-.937-.609-1.531-.609-.609-1.578-.609-.906 0-1.547.547-.625.531-.812 1.484l-1.406-.156q.219-1.469 1.25-2.281 1.031-.828 2.5-.828zm-.031 11.531q.422 0 .703.297.297.297.297.719 0 .406-.297.703-.281.297-.703.297-.453 0-.734-.297-.281-.297-.281-.703 0-.422.281-.719.297-.297.734-.297zm9.024-11.531q1.531 0 2.531.891 1.016.875 1.016 2.375 0 1-.406 1.703-.391.688-1.266 1.438-.75.625-1.047 1.188-.297.547-.297 1.719v.547h-1.344v-1.578q0-.547.328-1.078.344-.531 1.125-1.234.766-.672 1.156-1.266.406-.609.406-1.328 0-.937-.609-1.531-.609-.609-1.578-.609-.906 0-1.547.547-.625.531-.812 1.484l-1.406-.156q.219-1.469 1.25-2.281 1.031-.828 2.5-.828zm-.031 11.531q.422 0 .703.297.297.297.297.719 0 .406-.297.703-.281.297-.703.297-.453 0-.734-.297-.281-.297-.281-.703 0-.422.281-.719.297-.297.734-.297zM740.45 54.8q1.531 0 2.531.891 1.016.875 1.016 2.375 0 1-.406 1.703-.391.688-1.266 1.438-.75.625-1.047 1.188-.297.547-.297 1.719v.547h-1.344v-1.578q0-.547.328-1.078.344-.531 1.125-1.234.766-.672 1.156-1.266.406-.609.406-1.328 0-.937-.609-1.531-.609-.609-1.578-.609-.906 0-1.547.547-.625.531-.812 1.484l-1.406-.156q.219-1.469 1.25-2.281 1.031-.828 2.5-.828zm-.031 11.531q.422 0 .703.297.297.297.297.719 0 .406-.297.703-.281.297-.703.297-.453 0-.734-.297-.281-.297-.281-.703 0-.422.281-.719.297-.297.734-.297zm9.024-11.531q1.531 0 2.531.891 1.016.875 1.016 2.375 0 1-.406 1.703-.391.688-1.266 1.438-.75.625-1.047 1.188-.297.547-.297 1.719v.547h-1.344v-1.578q0-.547.328-1.078.344-.531 1.125-1.234.766-.672 1.156-1.266.406-.609.406-1.328 0-.937-.609-1.531-.609-.609-1.578-.609-.906 0-1.547.547-.625.531-.812 1.484l-1.406-.156q.219-1.469 1.25-2.281 1.031-.828 2.5-.828zm-.031 11.531q.422 0 .703.297.297.297.297.719 0 .406-.297.703-.281.297-.703.297-.453 0-.734-.297-.281-.297-.281-.703 0-.422.281-.719.297-.297.734-.297zm9.024-11.531q1.531 0 2.531.891 1.016.875 1.016 2.375 0 1-.406 1.703-.391.688-1.266 1.438-.75.625-1.047 1.188-.297.547-.297 1.719v.547h-1.344v-1.578q0-.547.328-1.078.344-.531 1.125-1.234.766-.672 1.156-1.266.406-.609.406-1.328 0-.937-.609-1.531-.609-.609-1.578-.609-.906 0-1.547.547-.625.531-.812 1.484l-1.406-.156q.219-1.469 1.25-2.281 1.031-.828 2.5-.828zm-.031 11.531q.422 0 .703.297.297.297.297.719 0 .406-.297.703-.281.297-.703.297-.453 0-.734-.297-.281-.297-.281-.703 0-.422.281-.719.297-.297.734-.297zm9.305-11.531q1.641 0 2.734.953 1.094.953 1.094 2.469 0 1-.625 1.844-.609.844-1.641 1.188 1.234.313 1.922 1.25.688.922.688 2.156 0 1.672-1.187 2.734-1.172 1.063-3.016 1.063-3.125 0-4.172-2.656l1.422-.437q.359.969 1.031 1.422.688.453 1.828.453 1.141 0 1.953-.75.813-.75.813-1.875 0-2.641-3.625-2.688h-.312v-1.219h.516q3.016 0 3.063-2.437 0-1.078-.641-1.656-.625-.578-1.812-.578-1.687 0-2.516 1.453l-1.172-.594q1.156-2.094 3.656-2.094zm10.092 0q1.531 0 2.531.891 1.016.875 1.016 2.375 0 1-.406 1.703-.391.688-1.266 1.438-.75.625-1.047 1.188-.297.547-.297 1.719v.547h-1.344v-1.578q0-.547.328-1.078.344-.531 1.125-1.234.766-.672 1.156-1.266.406-.609.406-1.328 0-.937-.609-1.531-.609-.609-1.578-.609-.906 0-1.547.547-.625.531-.812 1.484l-1.406-.156q.219-1.469 1.25-2.281 1.031-.828 2.5-.828zm-.031 11.531q.422 0 .703.297.297.297.297.719 0 .406-.297.703-.281.297-.703.297-.453 0-.734-.297-.281-.297-.281-.703 0-.422.281-.719.297-.297.734-.297zm9.024-11.531q1.531 0 2.531.891 1.016.875 1.016 2.375 0 1-.406 1.703-.391.688-1.266 1.438-.75.625-1.047 1.188-.297.547-.297 1.719v.547h-1.344v-1.578q0-.547.328-1.078.344-.531 1.125-1.234.766-.672 1.156-1.266.406-.609.406-1.328 0-.937-.609-1.531-.609-.609-1.578-.609-.906 0-1.547.547-.625.531-.812 1.484l-1.406-.156q.219-1.469 1.25-2.281 1.031-.828 2.5-.828zm-.031 11.531q.422 0 .703.297.297.297.297.719 0 .406-.297.703-.281.297-.703.297-.453 0-.734-.297-.281-.297-.281-.703 0-.422.281-.719.297-.297.734-.297zm9.024-11.531q1.531 0 2.531.891 1.016.875 1.016 2.375 0 1-.406 1.703-.391.688-1.266 1.438-.75.625-1.047 1.188-.297.547-.297 1.719v.547h-1.344v-1.578q0-.547.328-1.078.344-.531 1.125-1.234.766-.672 1.156-1.266.406-.609.406-1.328 0-.937-.609-1.531-.609-.609-1.578-.609-.906 0-1.547.547-.625.531-.812 1.484l-1.406-.156q.219-1.469 1.25-2.281 1.031-.828 2.5-.828zm-.031 11.531q.422 0 .703.297.297.297.297.719 0 .406-.297.703-.281.297-.703.297-.453 0-.734-.297-.281-.297-.281-.703 0-.422.281-.719.297-.297.734-.297z"/></g><use xlink:href="#C" fill="#fff" class="B"/><use xlink:href="#C" class="D E"/><g fill="#000"><path d="M392.667 124.78h146.205v87.276H392.667z" class="B C"/><path d="M420.246 138.262q1.531 0 2.531.891 1.016.875 1.016 2.375 0 1-.406 1.703-.391.688-1.266 1.438-.75.625-1.047 1.188-.297.547-.297 1.719v.547h-1.344v-1.578q0-.547.328-1.078.344-.531 1.125-1.234.766-.672 1.156-1.266.406-.609.406-1.328 0-.937-.609-1.531-.609-.609-1.578-.609-.906 0-1.547.547-.625.531-.812 1.484l-1.406-.156q.219-1.469 1.25-2.281 1.031-.828 2.5-.828zm-.031 11.531q.422 0 .703.297.297.297.297.719 0 .406-.297.703-.281.297-.703.297-.453 0-.734-.297-.281-.297-.281-.703 0-.422.281-.719.297-.297.734-.297zm9.024-11.531q1.531 0 2.531.891 1.016.875 1.016 2.375 0 1-.406 1.703-.391.688-1.266 1.438-.75.625-1.047 1.188-.297.547-.297 1.719v.547h-1.344v-1.578q0-.547.328-1.078.344-.531 1.125-1.234.766-.672 1.156-1.266.406-.609.406-1.328 0-.937-.609-1.531-.609-.609-1.578-.609-.906 0-1.547.547-.625.531-.812 1.484l-1.406-.156q.219-1.469 1.25-2.281 1.031-.828 2.5-.828zm-.031 11.531q.422 0 .703.297.297.297.297.719 0 .406-.297.703-.281.297-.703.297-.453 0-.734-.297-.281-.297-.281-.703 0-.422.281-.719.297-.297.734-.297zm9.024-11.531q1.531 0 2.531.891 1.016.875 1.016 2.375 0 1-.406 1.703-.391.688-1.266 1.438-.75.625-1.047 1.188-.297.547-.297 1.719v.547h-1.344v-1.578q0-.547.328-1.078.344-.531 1.125-1.234.766-.672 1.156-1.266.406-.609.406-1.328 0-.937-.609-1.531-.609-.609-1.578-.609-.906 0-1.547.547-.625.531-.812 1.484l-1.406-.156q.219-1.469 1.25-2.281 1.031-.828 2.5-.828zm-.031 11.531q.422 0 .703.297.297.297.297.719 0 .406-.297.703-.281.297-.703.297-.453 0-.734-.297-.281-.297-.281-.703 0-.422.281-.719.297-.297.734-.297zm13.07-11.297v1.219h-5.406l-.078 3.984q.813-.328 1.781-.328 1.797 0 2.969 1.203 1.172 1.188 1.203 3.047 0 1.875-1.266 3.078-1.25 1.203-3.172 1.219-1.25 0-2.266-.609-1.016-.609-1.547-1.734l1.328-.578q.859 1.656 2.594 1.703 1.25 0 2.109-.875.859-.875.875-2.078 0-1.375-.922-2.25-.906-.891-2.328-.891-1.359 0-2.734.734l.125-6.844h6.734zm6.326-.234q1.531 0 2.531.891 1.016.875 1.016 2.375 0 1-.406 1.703-.391.688-1.266 1.438-.75.625-1.047 1.188-.297.547-.297 1.719v.547h-1.344v-1.578q0-.547.328-1.078.344-.531 1.125-1.234.766-.672 1.156-1.266.406-.609.406-1.328 0-.937-.609-1.531-.609-.609-1.578-.609-.906 0-1.547.547-.625.531-.812 1.484l-1.406-.156q.219-1.469 1.25-2.281 1.031-.828 2.5-.828zm-.031 11.531q.422 0 .703.297.297.297.297.719 0 .406-.297.703-.281.297-.703.297-.453 0-.734-.297-.281-.297-.281-.703 0-.422.281-.719.297-.297.734-.297zm9.024-11.531q1.531 0 2.531.891 1.016.875 1.016 2.375 0 1-.406 1.703-.391.688-1.266 1.438-.75.625-1.047 1.188-.297.547-.297 1.719v.547h-1.344v-1.578q0-.547.328-1.078.344-.531 1.125-1.234.766-.672 1.156-1.266.406-.609.406-1.328 0-.937-.609-1.531-.609-.609-1.578-.609-.906 0-1.547.547-.625.531-.812 1.484l-1.406-.156q.219-1.469 1.25-2.281 1.031-.828 2.5-.828zm-.031 11.531q.422 0 .703.297.297.297.297.719 0 .406-.297.703-.281.297-.703.297-.453 0-.734-.297-.281-.297-.281-.703 0-.422.281-.719.297-.297.734-.297zm9.024-11.531q1.531 0 2.531.891 1.016.875 1.016 2.375 0 1-.406 1.703-.391.688-1.266 1.438-.75.625-1.047 1.188-.297.547-.297 1.719v.547h-1.344v-1.578q0-.547.328-1.078.344-.531 1.125-1.234.766-.672 1.156-1.266.406-.609.406-1.328 0-.937-.609-1.531-.609-.609-1.578-.609-.906 0-1.547.547-.625.531-.812 1.484l-1.406-.156q.219-1.469 1.25-2.281 1.031-.828 2.5-.828zm-.031 11.531q.422 0 .703.297.297.297.297.719 0 .406-.297.703-.281.297-.703.297-.453 0-.734-.297-.281-.297-.281-.703 0-.422.281-.719.297-.297.734-.297zm9.024-11.531q1.531 0 2.531.891 1.016.875 1.016 2.375 0 1-.406 1.703-.391.688-1.266 1.438-.75.625-1.047 1.188-.297.547-.297 1.719v.547h-1.344v-1.578q0-.547.328-1.078.344-.531 1.125-1.234.766-.672 1.156-1.266.406-.609.406-1.328 0-.937-.609-1.531-.609-.609-1.578-.609-.906 0-1.547.547-.625.531-.812 1.484l-1.406-.156q.219-1.469 1.25-2.281 1.031-.828 2.5-.828zm-.031 11.531q.422 0 .703.297.297.297.297.719 0 .406-.297.703-.281.297-.703.297-.453 0-.734-.297-.281-.297-.281-.703 0-.422.281-.719.297-.297.734-.297zm9.024-11.531q1.531 0 2.531.891 1.016.875 1.016 2.375 0 1-.406 1.703-.391.688-1.266 1.438-.75.625-1.047 1.188-.297.547-.297 1.719v.547h-1.344v-1.578q0-.547.328-1.078.344-.531 1.125-1.234.766-.672 1.156-1.266.406-.609.406-1.328 0-.937-.609-1.531-.609-.609-1.578-.609-.906 0-1.547.547-.625.531-.812 1.484l-1.406-.156q.219-1.469 1.25-2.281 1.031-.828 2.5-.828zm-.031 11.531q.422 0 .703.297.297.297.297.719 0 .406-.297.703-.281.297-.703.297-.453 0-.734-.297-.281-.297-.281-.703 0-.422.281-.719.297-.297.734-.297zm9.024-11.531q1.531 0 2.531.891 1.016.875 1.016 2.375 0 1-.406 1.703-.391.688-1.266 1.438-.75.625-1.047 1.188-.297.547-.297 1.719v.547h-1.344v-1.578q0-.547.328-1.078.344-.531 1.125-1.234.766-.672 1.156-1.266.406-.609.406-1.328 0-.937-.609-1.531-.609-.609-1.578-.609-.906 0-1.547.547-.625.531-.812 1.484l-1.406-.156q.219-1.469 1.25-2.281 1.031-.828 2.5-.828zm-.031 11.531q.422 0 .703.297.297.297.297.719 0 .406-.297.703-.281.297-.703.297-.453 0-.734-.297-.281-.297-.281-.703 0-.422.281-.719.297-.297.734-.297zm9.024-11.531q1.531 0 2.531.891 1.016.875 1.016 2.375 0 1-.406 1.703-.391.688-1.266 1.438-.75.625-1.047 1.188-.297.547-.297 1.719v.547h-1.344v-1.578q0-.547.328-1.078.344-.531 1.125-1.234.766-.672 1.156-1.266.406-.609.406-1.328 0-.937-.609-1.531-.609-.609-1.578-.609-.906 0-1.547.547-.625.531-.812 1.484l-1.406-.156q.219-1.469 1.25-2.281 1.031-.828 2.5-.828zm-.031 11.531q.422 0 .703.297.297.297.297.719 0 .406-.297.703-.281.297-.703.297-.453 0-.734-.297-.281-.297-.281-.703 0-.422.281-.719.297-.297.734-.297z"/><use xlink:href="#D"/><path d="M420.936 183.062q1.531 0 2.531.891 1.016.875 1.016 2.375 0 1-.406 1.703-.391.688-1.266 1.438-.75.625-1.047 1.188-.297.547-.297 1.719v.547h-1.344v-1.578q0-.547.328-1.078.344-.531 1.125-1.234.766-.672 1.156-1.266.406-.609.406-1.328 0-.937-.609-1.531-.609-.609-1.578-.609-.906 0-1.547.547-.625.531-.812 1.484l-1.406-.156q.219-1.469 1.25-2.281 1.031-.828 2.5-.828zm-.031 11.531q.422 0 .703.297.297.297.297.719 0 .406-.297.703-.281.297-.703.297-.453 0-.734-.297-.281-.297-.281-.703 0-.422.281-.719.297-.297.734-.297zm9.024-11.531q1.531 0 2.531.891 1.016.875 1.016 2.375 0 1-.406 1.703-.391.688-1.266 1.438-.75.625-1.047 1.188-.297.547-.297 1.719v.547h-1.344v-1.578q0-.547.328-1.078.344-.531 1.125-1.234.766-.672 1.156-1.266.406-.609.406-1.328 0-.937-.609-1.531-.609-.609-1.578-.609-.906 0-1.547.547-.625.531-.812 1.484l-1.406-.156q.219-1.469 1.25-2.281 1.031-.828 2.5-.828zm-.031 11.531q.422 0 .703.297.297.297.297.719 0 .406-.297.703-.281.297-.703.297-.453 0-.734-.297-.281-.297-.281-.703 0-.422.281-.719.297-.297.734-.297zm9.024-11.531q1.531 0 2.531.891 1.016.875 1.016 2.375 0 1-.406 1.703-.391.688-1.266 1.438-.75.625-1.047 1.188-.297.547-.297 1.719v.547h-1.344v-1.578q0-.547.328-1.078.344-.531 1.125-1.234.766-.672 1.156-1.266.406-.609.406-1.328 0-.937-.609-1.531-.609-.609-1.578-.609-.906 0-1.547.547-.625.531-.812 1.484l-1.406-.156q.219-1.469 1.25-2.281 1.031-.828 2.5-.828zm-.031 11.531q.422 0 .703.297.297.297.297.719 0 .406-.297.703-.281.297-.703.297-.453 0-.734-.297-.281-.297-.281-.703 0-.422.281-.719.297-.297.734-.297zm9.024-11.531q1.531 0 2.531.891 1.016.875 1.016 2.375 0 1-.406 1.703-.391.688-1.266 1.438-.75.625-1.047 1.188-.297.547-.297 1.719v.547h-1.344v-1.578q0-.547.328-1.078.344-.531 1.125-1.234.766-.672 1.156-1.266.406-.609.406-1.328 0-.937-.609-1.531-.609-.609-1.578-.609-.906 0-1.547.547-.625.531-.812 1.484l-1.406-.156q.219-1.469 1.25-2.281 1.031-.828 2.5-.828zm-.031 11.531q.422 0 .703.297.297.297.297.719 0 .406-.297.703-.281.297-.703.297-.453 0-.734-.297-.281-.297-.281-.703 0-.422.281-.719.297-.297.734-.297zm9.024-11.531q1.531 0 2.531.891 1.016.875 1.016 2.375 0 1-.406 1.703-.391.688-1.266 1.438-.75.625-1.047 1.188-.297.547-.297 1.719v.547h-1.344v-1.578q0-.547.328-1.078.344-.531 1.125-1.234.766-.672 1.156-1.266.406-.609.406-1.328 0-.937-.609-1.531-.609-.609-1.578-.609-.906 0-1.547.547-.625.531-.812 1.484l-1.406-.156q.219-1.469 1.25-2.281 1.031-.828 2.5-.828zm-.031 11.531q.422 0 .703.297.297.297.297.719 0 .406-.297.703-.281.297-.703.297-.453 0-.734-.297-.281-.297-.281-.703 0-.422.281-.719.297-.297.734-.297zm9.024-11.531q1.531 0 2.531.891 1.016.875 1.016 2.375 0 1-.406 1.703-.391.688-1.266 1.438-.75.625-1.047 1.188-.297.547-.297 1.719v.547h-1.344v-1.578q0-.547.328-1.078.344-.531 1.125-1.234.766-.672 1.156-1.266.406-.609.406-1.328 0-.937-.609-1.531-.609-.609-1.578-.609-.906 0-1.547.547-.625.531-.812 1.484l-1.406-.156q.219-1.469 1.25-2.281 1.031-.828 2.5-.828zm-.031 11.531q.422 0 .703.297.297.297.297.719 0 .406-.297.703-.281.297-.703.297-.453 0-.734-.297-.281-.297-.281-.703 0-.422.281-.719.297-.297.734-.297zm9.024-11.531q1.531 0 2.531.891 1.016.875 1.016 2.375 0 1-.406 1.703-.391.688-1.266 1.438-.75.625-1.047 1.188-.297.547-.297 1.719v.547h-1.344v-1.578q0-.547.328-1.078.344-.531 1.125-1.234.766-.672 1.156-1.266.406-.609.406-1.328 0-.937-.609-1.531-.609-.609-1.578-.609-.906 0-1.547.547-.625.531-.812 1.484l-1.406-.156q.219-1.469 1.25-2.281 1.031-.828 2.5-.828zm-.031 11.531q.422 0 .703.297.297.297.297.719 0 .406-.297.703-.281.297-.703.297-.453 0-.734-.297-.281-.297-.281-.703 0-.422.281-.719.297-.297.734-.297zm9.024-11.531q1.531 0 2.531.891 1.016.875 1.016 2.375 0 1-.406 1.703-.391.688-1.266 1.438-.75.625-1.047 1.188-.297.547-.297 1.719v.547h-1.344v-1.578q0-.547.328-1.078.344-.531 1.125-1.234.766-.672 1.156-1.266.406-.609.406-1.328 0-.937-.609-1.531-.609-.609-1.578-.609-.906 0-1.547.547-.625.531-.812 1.484l-1.406-.156q.219-1.469 1.25-2.281 1.031-.828 2.5-.828zm-.031 11.531q.422 0 .703.297.297.297.297.719 0 .406-.297.703-.281.297-.703.297-.453 0-.734-.297-.281-.297-.281-.703 0-.422.281-.719.297-.297.734-.297zm9.024-11.531q1.531 0 2.531.891 1.016.875 1.016 2.375 0 1-.406 1.703-.391.688-1.266 1.438-.75.625-1.047 1.188-.297.547-.297 1.719v.547h-1.344v-1.578q0-.547.328-1.078.344-.531 1.125-1.234.766-.672 1.156-1.266.406-.609.406-1.328 0-.937-.609-1.531-.609-.609-1.578-.609-.906 0-1.547.547-.625.531-.812 1.484l-1.406-.156q.219-1.469 1.25-2.281 1.031-.828 2.5-.828zm-.031 11.531q.422 0 .703.297.297.297.297.719 0 .406-.297.703-.281.297-.703.297-.453 0-.734-.297-.281-.297-.281-.703 0-.422.281-.719.297-.297.734-.297zm9.024-11.531q1.531 0 2.531.891 1.016.875 1.016 2.375 0 1-.406 1.703-.391.688-1.266 1.438-.75.625-1.047 1.188-.297.547-.297 1.719v.547h-1.344v-1.578q0-.547.328-1.078.344-.531 1.125-1.234.766-.672 1.156-1.266.406-.609.406-1.328 0-.937-.609-1.531-.609-.609-1.578-.609-.906 0-1.547.547-.625.531-.812 1.484l-1.406-.156q.219-1.469 1.25-2.281 1.031-.828 2.5-.828zm-.031 11.531q.422 0 .703.297.297.297.297.719 0 .406-.297.703-.281.297-.703.297-.453 0-.734-.297-.281-.297-.281-.703 0-.422.281-.719.297-.297.734-.297zm9.024-11.531q1.531 0 2.531.891 1.016.875 1.016 2.375 0 1-.406 1.703-.391.688-1.266 1.438-.75.625-1.047 1.188-.297.547-.297 1.719v.547h-1.344v-1.578q0-.547.328-1.078.344-.531 1.125-1.234.766-.672 1.156-1.266.406-.609.406-1.328 0-.937-.609-1.531-.609-.609-1.578-.609-.906 0-1.547.547-.625.531-.812 1.484l-1.406-.156q.219-1.469 1.25-2.281 1.031-.828 2.5-.828zm-.031 11.531q.422 0 .703.297.297.297.297.719 0 .406-.297.703-.281.297-.703.297-.453 0-.734-.297-.281-.297-.281-.703 0-.422.281-.719.297-.297.734-.297z"/></g></g><defs ><path id="C" d="M320.383 275.496h0c0-83.217 67.46-150.677 150.677-150.677h0a150.68 150.68 0 0 1 150.677 150.677h0c0 83.217-67.461 150.677-150.677 150.677h0c-83.217 0-150.677-67.46-150.677-150.677zm75.339 0h0c0 41.608 33.73 75.339 75.339 75.339s75.339-33.73 75.339-75.339-33.73-75.339-75.339-75.339h0c-41.608 0-75.339 33.73-75.339 75.339z"/><path id="D" d="M420.936 160.662q1.531 0 2.531.891 1.016.875 1.016 2.375 0 1-.406 1.703-.391.688-1.266 1.438-.75.625-1.047 1.188-.297.547-.297 1.719v.547h-1.344v-1.578q0-.547.328-1.078.344-.531 1.125-1.234.766-.672 1.156-1.266.406-.609.406-1.328 0-.937-.609-1.531-.609-.609-1.578-.609-.906 0-1.547.547-.625.531-.812 1.484l-1.406-.156q.219-1.469 1.25-2.281 1.031-.828 2.5-.828zm-.031 11.531q.422 0 .703.297.297.297.297.719 0 .406-.297.703-.281.297-.703.297-.453 0-.734-.297-.281-.297-.281-.703 0-.422.281-.719.297-.297.734-.297zm9.024-11.531q1.531 0 2.531.891 1.016.875 1.016 2.375 0 1-.406 1.703-.391.688-1.266 1.438-.75.625-1.047 1.188-.297.547-.297 1.719v.547h-1.344v-1.578q0-.547.328-1.078.344-.531 1.125-1.234.766-.672 1.156-1.266.406-.609.406-1.328 0-.937-.609-1.531-.609-.609-1.578-.609-.906 0-1.547.547-.625.531-.812 1.484l-1.406-.156q.219-1.469 1.25-2.281 1.031-.828 2.5-.828zm-.031 11.531q.422 0 .703.297.297.297.297.719 0 .406-.297.703-.281.297-.703.297-.453 0-.734-.297-.281-.297-.281-.703 0-.422.281-.719.297-.297.734-.297zm9.024-11.531q1.531 0 2.531.891 1.016.875 1.016 2.375 0 1-.406 1.703-.391.688-1.266 1.438-.75.625-1.047 1.188-.297.547-.297 1.719v.547h-1.344v-1.578q0-.547.328-1.078.344-.531 1.125-1.234.766-.672 1.156-1.266.406-.609.406-1.328 0-.937-.609-1.531-.609-.609-1.578-.609-.906 0-1.547.547-.625.531-.812 1.484l-1.406-.156q.219-1.469 1.25-2.281 1.031-.828 2.5-.828zm-.031 11.531q.422 0 .703.297.297.297.297.719 0 .406-.297.703-.281.297-.703.297-.453 0-.734-.297-.281-.297-.281-.703 0-.422.281-.719.297-.297.734-.297zm9.024-11.531q1.531 0 2.531.891 1.016.875 1.016 2.375 0 1-.406 1.703-.391.688-1.266 1.438-.75.625-1.047 1.188-.297.547-.297 1.719v.547h-1.344v-1.578q0-.547.328-1.078.344-.531 1.125-1.234.766-.672 1.156-1.266.406-.609.406-1.328 0-.937-.609-1.531-.609-.609-1.578-.609-.906 0-1.547.547-.625.531-.812 1.484l-1.406-.156q.219-1.469 1.25-2.281 1.031-.828 2.5-.828zm-.031 11.531q.422 0 .703.297.297.297.297.719 0 .406-.297.703-.281.297-.703.297-.453 0-.734-.297-.281-.297-.281-.703 0-.422.281-.719.297-.297.734-.297zm9.024-11.531q1.531 0 2.531.891 1.016.875 1.016 2.375 0 1-.406 1.703-.391.688-1.266 1.438-.75.625-1.047 1.188-.297.547-.297 1.719v.547h-1.344v-1.578q0-.547.328-1.078.344-.531 1.125-1.234.766-.672 1.156-1.266.406-.609.406-1.328 0-.937-.609-1.531-.609-.609-1.578-.609-.906 0-1.547.547-.625.531-.812 1.484l-1.406-.156q.219-1.469 1.25-2.281 1.031-.828 2.5-.828zm-.031 11.531q.422 0 .703.297.297.297.297.719 0 .406-.297.703-.281.297-.703.297-.453 0-.734-.297-.281-.297-.281-.703 0-.422.281-.719.297-.297.734-.297zm9.024-11.531q1.531 0 2.531.891 1.016.875 1.016 2.375 0 1-.406 1.703-.391.688-1.266 1.438-.75.625-1.047 1.188-.297.547-.297 1.719v.547h-1.344v-1.578q0-.547.328-1.078.344-.531 1.125-1.234.766-.672 1.156-1.266.406-.609.406-1.328 0-.937-.609-1.531-.609-.609-1.578-.609-.906 0-1.547.547-.625.531-.812 1.484l-1.406-.156q.219-1.469 1.25-2.281 1.031-.828 2.5-.828zm-.031 11.531q.422 0 .703.297.297.297.297.719 0 .406-.297.703-.281.297-.703.297-.453 0-.734-.297-.281-.297-.281-.703 0-.422.281-.719.297-.297.734-.297zm9.024-11.531q1.531 0 2.531.891 1.016.875 1.016 2.375 0 1-.406 1.703-.391.688-1.266 1.438-.75.625-1.047 1.188-.297.547-.297 1.719v.547h-1.344v-1.578q0-.547.328-1.078.344-.531 1.125-1.234.766-.672 1.156-1.266.406-.609.406-1.328 0-.937-.609-1.531-.609-.609-1.578-.609-.906 0-1.547.547-.625.531-.812 1.484l-1.406-.156q.219-1.469 1.25-2.281 1.031-.828 2.5-.828zm-.031 11.531q.422 0 .703.297.297.297.297.719 0 .406-.297.703-.281.297-.703.297-.453 0-.734-.297-.281-.297-.281-.703 0-.422.281-.719.297-.297.734-.297zm9.024-11.531q1.531 0 2.531.891 1.016.875 1.016 2.375 0 1-.406 1.703-.391.688-1.266 1.438-.75.625-1.047 1.188-.297.547-.297 1.719v.547h-1.344v-1.578q0-.547.328-1.078.344-.531 1.125-1.234.766-.672 1.156-1.266.406-.609.406-1.328 0-.937-.609-1.531-.609-.609-1.578-.609-.906 0-1.547.547-.625.531-.812 1.484l-1.406-.156q.219-1.469 1.25-2.281 1.031-.828 2.5-.828zm-.031 11.531q.422 0 .703.297.297.297.297.719 0 .406-.297.703-.281.297-.703.297-.453 0-.734-.297-.281-.297-.281-.703 0-.422.281-.719.297-.297.734-.297zm9.024-11.531q1.531 0 2.531.891 1.016.875 1.016 2.375 0 1-.406 1.703-.391.688-1.266 1.438-.75.625-1.047 1.188-.297.547-.297 1.719v.547h-1.344v-1.578q0-.547.328-1.078.344-.531 1.125-1.234.766-.672 1.156-1.266.406-.609.406-1.328 0-.937-.609-1.531-.609-.609-1.578-.609-.906 0-1.547.547-.625.531-.812 1.484l-1.406-.156q.219-1.469 1.25-2.281 1.031-.828 2.5-.828zm-.031 11.531q.422 0 .703.297.297.297.297.719 0 .406-.297.703-.281.297-.703.297-.453 0-.734-.297-.281-.297-.281-.703 0-.422.281-.719.297-.297.734-.297zm9.024-11.531q1.531 0 2.531.891 1.016.875 1.016 2.375 0 1-.406 1.703-.391.688-1.266 1.438-.75.625-1.047 1.188-.297.547-.297 1.719v.547h-1.344v-1.578q0-.547.328-1.078.344-.531 1.125-1.234.766-.672 1.156-1.266.406-.609.406-1.328 0-.937-.609-1.531-.609-.609-1.578-.609-.906 0-1.547.547-.625.531-.812 1.484l-1.406-.156q.219-1.469 1.25-2.281 1.031-.828 2.5-.828zm-.031 11.531q.422 0 .703.297.297.297.297.719 0 .406-.297.703-.281.297-.703.297-.453 0-.734-.297-.281-.297-.281-.703 0-.422.281-.719.297-.297.734-.297zm9.024-11.531q1.531 0 2.531.891 1.016.875 1.016 2.375 0 1-.406 1.703-.391.688-1.266 1.438-.75.625-1.047 1.188-.297.547-.297 1.719v.547h-1.344v-1.578q0-.547.328-1.078.344-.531 1.125-1.234.766-.672 1.156-1.266.406-.609.406-1.328 0-.937-.609-1.531-.609-.609-1.578-.609-.906 0-1.547.547-.625.531-.812 1.484l-1.406-.156q.219-1.469 1.25-2.281 1.031-.828 2.5-.828zm-.031 11.531q.422 0 .703.297.297.297.297.719 0 .406-.297.703-.281.297-.703.297-.453 0-.734-.297-.281-.297-.281-.703 0-.422.281-.719.297-.297.734-.297z"/></defs></svg>